<svg width="168" height="36" viewBox="0 0 168 36" fill="none" xmlns="http://www.w3.org/2000/svg">
<path d="M20.8226 27.2249L17.68 27.4111L15.3074 22.7077C15.2491 22.5766 15.1342 22.3395 14.9625 21.9965C14.8066 21.6357 14.623 21.2345 14.4118 20.7929C14.2164 20.3335 14.0121 19.8663 13.799 19.3911C13.5858 18.916 13.3919 18.4818 13.2172 18.0885C13.243 18.5242 13.2728 19.0271 13.3066 19.5969C13.3403 20.1668 13.3746 20.745 13.4094 21.3316C13.4441 21.9183 13.4685 22.4718 13.4825 22.9924C13.5133 23.512 13.5292 23.9231 13.5304 24.2258L13.6072 27.6524L9.78582 27.8788L9.78311 10.7989L13.3531 10.5874L17.8559 20.16C17.9911 20.4547 18.1673 20.8732 18.3844 21.4153C18.6173 21.9397 18.8448 22.5149 19.0669 23.1409C19.2146 22.5099 19.3647 21.9207 19.5173 21.3734C19.6856 20.8084 19.8274 20.3627 19.9426 20.0363L23.2837 9.99907L26.7783 9.79204L28.7923 26.7528L24.8954 26.9836L24.542 23.5734C24.5064 23.256 24.4648 22.838 24.4173 22.3194C24.3865 21.7998 24.3542 21.2551 24.3205 20.6852C24.2857 20.0986 24.2515 19.5204 24.2177 18.9505C24.1997 18.3629 24.1783 17.8596 24.1535 17.4406C24.0402 17.8005 23.9132 18.2117 23.7724 18.6741C23.6474 19.1188 23.5135 19.5557 23.3707 19.9846C23.2279 20.4136 23.092 20.8169 22.963 21.1945C22.833 21.5554 22.7321 21.8389 22.6602 22.045L20.8226 27.2249Z" fill="#F0283C"/>
<path d="M39.959 9.396C41.2846 9.34795 42.4328 9.50793 43.4038 9.87595C44.3748 10.244 45.1841 10.7859 45.8317 11.5016C46.4793 12.2174 46.9652 13.107 47.2893 14.1705C47.6297 15.2167 47.8239 16.4025 47.8719 17.728C47.9194 19.0368 47.7951 20.2425 47.4991 21.3453C47.2192 22.4307 46.7661 23.3712 46.1397 24.1668C45.5133 24.9623 44.713 25.5962 43.7389 26.0683C42.7641 26.5237 41.6056 26.7757 40.2633 26.8244C38.9377 26.8724 37.7817 26.7295 36.7951 26.3957C35.8248 26.0444 35.0161 25.5193 34.3691 24.8203C33.7215 24.1046 33.2278 23.232 32.8881 22.2027C32.5652 21.1727 32.3793 19.9866 32.3307 18.6443C32.2832 17.3355 32.3991 16.13 32.6784 15.0279C32.9738 13.9083 33.4344 12.9423 34.0602 12.13C34.6854 11.3009 35.4851 10.6503 36.4592 10.1781C37.4501 9.70538 38.6167 9.44467 39.959 9.396ZM39.7134 12.3535C38.6228 12.393 37.8444 12.9337 37.3781 13.9754C36.928 14.9998 36.7355 16.4097 36.8006 18.205C36.8316 19.0607 36.9103 19.8391 37.0365 20.5402C37.1795 21.2406 37.3862 21.8464 37.6568 22.3574C37.9435 22.851 38.3185 23.2323 38.7819 23.5011C39.2453 23.7699 39.8209 23.8918 40.5089 23.8669C41.5995 23.8273 42.3705 23.3122 42.8218 22.3214C43.2731 21.3305 43.4662 19.9375 43.4011 18.1421C43.3701 17.2864 43.2828 16.4999 43.1392 15.7827C43.0123 15.0648 42.8052 14.4507 42.5179 13.9403C42.2468 13.4125 41.8795 13.0142 41.4161 12.7454C40.9522 12.4598 40.3846 12.3291 39.7134 12.3535Z" fill="#F0283C"/>
<path d="M60.1421 25.8434L56.6167 25.8984L49.9797 8.94966L54.3614 8.88131L56.7338 15.6451C57.0855 16.6639 57.3944 17.6246 57.6603 18.5272C57.926 19.413 58.1478 20.1736 58.3256 20.8089C58.4835 20.1684 58.6816 19.4097 58.9198 18.5328C59.158 17.6559 59.4535 16.6857 59.8064 15.6223L62.0167 8.76191L66.2472 8.69592L60.1421 25.8434Z" fill="#F0283C"/>
<path d="M68.9596 8.95055L73.1151 8.95246L73.1073 26.0026L68.9518 26.0007L68.9596 8.95055Z" fill="#F0283C"/>
<path d="M77.312 8.97256L88.1654 9.13687L88.1193 12.1839L81.4209 12.0825L81.3656 15.7339L86.9308 15.8181L86.407 18.8075L81.3202 18.7305L81.255 23.0367L88.306 23.1434L88.2599 26.1904L77.0539 26.0208L77.312 8.97256Z" fill="#F0283C"/>
<path d="M92.1701 8.99587L103.019 9.34436L102.922 12.365L96.2265 12.1499L96.1011 16.0516L101.714 16.2319L101.115 19.2111L96.0049 19.047L95.7761 26.1707L91.6227 26.0372L92.1701 8.99587Z" fill="#F0283C"/>
<path d="M106.485 10.0136L110.636 10.2061L109.847 27.2379L105.696 27.0455L106.485 10.0136Z" fill="#F0283C"/>
<path d="M113.656 27.9521L119.488 19.3559L115.214 10.9658L119.739 11.2463L121.86 15.6928C121.92 15.8142 121.986 15.9781 122.057 16.1844C122.146 16.3749 122.243 16.5744 122.348 16.7828C122.477 16.6057 122.589 16.4276 122.684 16.2485C122.796 16.0704 122.898 15.9169 122.99 15.788L125.671 11.6142L130.196 11.8947L124.891 19.7161L129.618 28.9418L125.043 28.6581L122.54 23.4562C122.464 23.317 122.382 23.1521 122.293 22.9615C122.205 22.7542 122.108 22.5463 122.003 22.338L121.358 23.383L118.231 28.2357L113.656 27.9521Z" fill="#F0283C"/>
</svg>
